<svg width="16" height="8" viewBox="0 0 16 8" fill="none" xmlns="http://www.w3.org/2000/svg">
<path d="M13.2628 4.80441C13.1323 4.80441 13.063 4.80441 12.9921 4.80441C8.97923 4.80441 4.96473 4.80441 0.951843 4.80119C0.55877 4.80119 0.225302 4.6562 0.0529301 4.26474C-0.140384 3.82656 0.231746 3.33361 0.589378 3.24984C0.753695 3.21118 0.927678 3.20473 1.09683 3.20473C5.05011 3.20312 9.00339 3.20312 12.9583 3.20312C13.0517 3.20312 13.1452 3.20312 13.2982 3.20312C13.2096 3.12579 13.1548 3.08391 13.1049 3.03397C12.5427 2.47336 11.9724 1.92241 11.4247 1.34891C11.0719 0.980004 11.1508 0.514438 11.481 0.195469C11.7613 -0.0751714 12.2479 -0.0735604 12.5813 0.26474C13.6204 1.31992 14.6675 2.36542 15.7195 3.4061C16.0932 3.77662 16.0964 4.23252 15.7162 4.60465C15.262 5.04927 14.8318 5.51645 14.3824 5.9643C13.7847 6.56196 13.1887 7.16285 12.5717 7.73796C12.0884 8.18902 11.4698 8.03921 11.241 7.44476C11.1218 7.13385 11.2346 6.84066 11.4714 6.60385C12.0078 6.06579 12.5459 5.52934 13.0839 4.99128C13.129 4.94617 13.1725 4.89784 13.2611 4.80441H13.2628Z" fill="white"/>
</svg>
