<svg width="60" height="60" viewBox="0 0 60 60" fill="none" xmlns="http://www.w3.org/2000/svg">
<path d="M1 30C1 13.9837 13.9837 1 30 1C46.0163 1 59 13.9837 59 30C59 46.0163 46.0163 59 30 59C13.9837 59 1 46.0163 1 30Z" fill="white" stroke="black" stroke-width="2"/>
<g clip-path="url(#clip0_300_5376)">
<path d="M37.4008 30.7558C37.2173 30.7558 37.1198 30.7558 37.0202 30.7558C31.377 30.7558 25.7317 30.7558 20.0885 30.7513C19.5358 30.7513 19.0668 30.5474 18.8244 29.9969C18.5526 29.3807 19.0759 28.6875 19.5788 28.5697C19.8099 28.5153 20.0545 28.5063 20.2924 28.5063C25.8517 28.504 31.411 28.504 36.9726 28.504C37.104 28.504 37.2354 28.504 37.4506 28.504C37.326 28.3953 37.249 28.3364 37.1787 28.2661C36.3881 27.4778 35.5862 26.703 34.8159 25.8965C34.3198 25.3777 34.4308 24.723 34.8952 24.2745C35.2894 23.8939 35.9735 23.8962 36.4425 24.3719C37.9037 25.8557 39.3762 27.326 40.8555 28.7894C41.3811 29.3105 41.3856 29.9516 40.851 30.4749C40.2121 31.1001 39.6073 31.7571 38.9752 32.3869C38.1347 33.2274 37.2965 34.0724 36.4289 34.8811C35.7493 35.5154 34.8794 35.3047 34.5577 34.4688C34.39 34.0316 34.5486 33.6193 34.8816 33.2863C35.636 32.5296 36.3926 31.7752 37.1493 31.0186C37.2127 30.9552 37.2739 30.8872 37.3985 30.7558H37.4008Z" fill="black"/>
</g>
<defs>
<clipPath id="clip0_300_5376">
<rect width="22.5045" height="11.25" fill="white" transform="translate(18.75 24)"/>
</clipPath>
</defs>
</svg>
