<svg width="60" height="60" viewBox="0 0 60 60" fill="none" xmlns="http://www.w3.org/2000/svg">
<path d="M59 30C59 46.0163 46.0163 59 30 59C13.9837 59 0.999999 46.0163 0.999997 30C0.999996 13.9837 13.9837 1 30 1C46.0163 1 59 13.9837 59 30Z" fill="white" stroke="black" stroke-width="2"/>
<g clip-path="url(#clip0_300_5381)">
<path d="M22.5992 29.2442C22.7827 29.2442 22.8802 29.2442 22.9798 29.2442C28.623 29.2442 34.2683 29.2442 39.9115 29.2487C40.4642 29.2487 40.9332 29.4526 41.1756 30.0031C41.4474 30.6193 40.9241 31.3125 40.4212 31.4303C40.1901 31.4847 39.9455 31.4937 39.7076 31.4937C34.1483 31.496 28.589 31.496 23.0274 31.496C22.896 31.496 22.7646 31.496 22.5494 31.496C22.674 31.6047 22.751 31.6636 22.8213 31.7339C23.6119 32.5222 24.4138 33.297 25.1841 34.1035C25.6802 34.6223 25.5692 35.277 25.1048 35.7255C24.7106 36.1061 24.0265 36.1038 23.5575 35.6281C22.0963 34.1443 20.6238 32.674 19.1445 31.2106C18.6189 30.6895 18.6144 30.0484 19.149 29.5251C19.7879 28.8999 20.3927 28.2429 21.0248 27.6131C21.8653 26.7726 22.7035 25.9276 23.5711 25.1189C24.2507 24.4846 25.1206 24.6953 25.4423 25.5312C25.61 25.9684 25.4514 26.3807 25.1184 26.7137C24.364 27.4704 23.6074 28.2248 22.8507 28.9814C22.7873 29.0448 22.7261 29.1128 22.6015 29.2442L22.5992 29.2442Z" fill="black"/>
</g>
<defs>
<clipPath id="clip0_300_5381">
<rect width="22.5045" height="11.25" fill="white" transform="translate(41.25 36) rotate(180)"/>
</clipPath>
</defs>
</svg>
