<svg width="150" height="150" viewBox="0 0 150 150" fill="none" xmlns="http://www.w3.org/2000/svg">
<path d="M1 75C1 34.1309 34.1309 1 75 1C115.869 1 149 34.1309 149 75C149 115.869 115.869 149 75 149C34.1309 149 1 115.869 1 75Z" fill="white" stroke="black" stroke-width="2"/>
<path d="M62.0521 39.3636C61.9925 38.8598 61.7505 38.4688 61.3263 38.1903C60.902 37.9119 60.3817 37.7727 59.7652 37.7727C59.3144 37.7727 58.92 37.8456 58.5819 37.9915C58.2472 38.1373 57.9854 38.3378 57.7964 38.593C57.6108 38.8482 57.518 39.1383 57.518 39.4631C57.518 39.7348 57.5827 39.9685 57.7119 40.1641C57.8445 40.3563 58.0135 40.517 58.219 40.6463C58.4245 40.7723 58.6399 40.8767 58.8653 40.9595C59.0907 41.0391 59.2979 41.1037 59.4868 41.1534L60.5209 41.4318C60.786 41.5014 61.081 41.5975 61.4058 41.7202C61.7339 41.8428 62.0471 42.0102 62.3454 42.2223C62.647 42.4311 62.8956 42.6996 63.0912 43.0277C63.2867 43.3558 63.3845 43.7585 63.3845 44.2358C63.3845 44.786 63.2403 45.2831 62.952 45.7273C62.6669 46.1714 62.2493 46.5244 61.6991 46.7862C61.1523 47.0481 60.4877 47.179 59.7055 47.179C58.9764 47.179 58.345 47.0613 57.8113 46.826C57.281 46.5907 56.8634 46.2625 56.5585 45.8416C56.2569 45.4207 56.0862 44.9318 56.0464 44.375H57.3192C57.3523 44.7595 57.4816 45.0777 57.7069 45.3295C57.9356 45.5781 58.224 45.7637 58.572 45.8864C58.9233 46.0057 59.3012 46.0653 59.7055 46.0653C60.1762 46.0653 60.5988 45.9891 60.9733 45.8366C61.3478 45.6809 61.6444 45.4654 61.8632 45.1903C62.0819 44.9119 62.1913 44.5871 62.1913 44.2159C62.1913 43.8778 62.0969 43.6027 61.9079 43.3906C61.719 43.1785 61.4704 43.0062 61.1622 42.8736C60.854 42.741 60.5209 42.625 60.1629 42.5256L58.9101 42.1676C58.1146 41.9389 57.4849 41.6125 57.0209 41.1882C56.5568 40.764 56.3248 40.2088 56.3248 39.5227C56.3248 38.9527 56.479 38.4555 56.7872 38.0312C57.0988 37.6037 57.5164 37.2723 58.04 37.0369C58.567 36.7983 59.1553 36.679 59.805 36.679C60.4612 36.679 61.0445 36.7966 61.555 37.032C62.0654 37.264 62.4697 37.5821 62.768 37.9865C63.0696 38.3909 63.2287 38.8499 63.2453 39.3636H62.0521ZM68.4543 47.1591C67.7185 47.1591 67.0838 46.9967 66.5502 46.6719C66.0199 46.3438 65.6105 45.8864 65.3222 45.2997C65.0371 44.7098 64.8946 44.0237 64.8946 43.2415C64.8946 42.4593 65.0371 41.7699 65.3222 41.1733C65.6105 40.5734 66.0116 40.1061 66.5253 39.7713C67.0423 39.4332 67.6456 39.2642 68.335 39.2642C68.7327 39.2642 69.1254 39.3305 69.5132 39.4631C69.901 39.5956 70.254 39.8111 70.5722 40.1094C70.8904 40.4044 71.1439 40.7955 71.3328 41.2827C71.5218 41.7699 71.6162 42.3698 71.6162 43.0824V43.5795H65.7298V42.5653H70.423C70.423 42.1345 70.3369 41.75 70.1645 41.4119C69.9955 41.0739 69.7535 40.8071 69.4387 40.6115C69.1271 40.416 68.7592 40.3182 68.335 40.3182C67.8676 40.3182 67.4633 40.4342 67.1219 40.6662C66.7838 40.8949 66.5236 41.1932 66.3414 41.5611C66.1591 41.929 66.0679 42.3234 66.0679 42.7443V43.4205C66.0679 43.9972 66.1673 44.486 66.3662 44.8871C66.5684 45.2848 66.8485 45.5881 67.2064 45.7969C67.5644 46.0024 67.9803 46.1051 68.4543 46.1051C68.7625 46.1051 69.0409 46.062 69.2895 45.9759C69.5414 45.8864 69.7585 45.7538 69.9408 45.5781C70.1231 45.3991 70.2639 45.1771 70.3634 44.9119L71.4969 45.2301C71.3776 45.6146 71.1771 45.9527 70.8953 46.2443C70.6136 46.5327 70.2656 46.758 69.8513 46.9205C69.437 47.0795 68.9713 47.1591 68.4543 47.1591ZM76.722 39.3636V40.358H72.7646V39.3636H76.722ZM73.9181 37.5341H75.0914V44.8125C75.0914 45.1439 75.1394 45.3925 75.2355 45.5582C75.335 45.7206 75.4609 45.83 75.6134 45.8864C75.7691 45.9394 75.9332 45.9659 76.1056 45.9659C76.2348 45.9659 76.3409 45.9593 76.4237 45.946C76.5066 45.9295 76.5729 45.9162 76.6226 45.9062L76.8612 46.9602C76.7817 46.9901 76.6707 47.0199 76.5281 47.0497C76.3856 47.0829 76.205 47.0994 75.9862 47.0994C75.6548 47.0994 75.33 47.0282 75.0118 46.8857C74.6969 46.7431 74.4351 46.526 74.2263 46.2344C74.0208 45.9427 73.9181 45.5748 73.9181 45.1307V37.5341ZM85.5267 47.1591C84.8373 47.1591 84.2325 46.995 83.7121 46.6669C83.195 46.3388 82.7907 45.8797 82.499 45.2898C82.2107 44.6998 82.0665 44.0104 82.0665 43.2216C82.0665 42.4261 82.2107 41.7318 82.499 41.1385C82.7907 40.5452 83.195 40.0845 83.7121 39.7564C84.2325 39.4283 84.8373 39.2642 85.5267 39.2642C86.2161 39.2642 86.8193 39.4283 87.3364 39.7564C87.8567 40.0845 88.2611 40.5452 88.5494 41.1385C88.8411 41.7318 88.9869 42.4261 88.9869 43.2216C88.9869 44.0104 88.8411 44.6998 88.5494 45.2898C88.2611 45.8797 87.8567 46.3388 87.3364 46.6669C86.8193 46.995 86.2161 47.1591 85.5267 47.1591ZM85.5267 46.1051C86.0504 46.1051 86.4813 45.9709 86.8193 45.7024C87.1574 45.4339 87.4076 45.081 87.57 44.6435C87.7325 44.206 87.8137 43.732 87.8137 43.2216C87.8137 42.7112 87.7325 42.2356 87.57 41.7947C87.4076 41.3539 87.1574 40.9976 86.8193 40.7259C86.4813 40.4541 86.0504 40.3182 85.5267 40.3182C85.003 40.3182 84.5722 40.4541 84.2341 40.7259C83.896 40.9976 83.6458 41.3539 83.4834 41.7947C83.321 42.2356 83.2398 42.7112 83.2398 43.2216C83.2398 43.732 83.321 44.206 83.4834 44.6435C83.6458 45.081 83.896 45.4339 84.2341 45.7024C84.5722 45.9709 85.003 46.1051 85.5267 46.1051ZM94.1785 39.3636V40.358H90.0621V39.3636H94.1785ZM91.295 47V38.3097C91.295 37.8722 91.3978 37.5076 91.6032 37.2159C91.8087 36.9242 92.0756 36.7055 92.4037 36.5597C92.7318 36.4138 93.0782 36.3409 93.4427 36.3409C93.7311 36.3409 93.9664 36.3641 94.1487 36.4105C94.331 36.4569 94.4669 36.5 94.5564 36.5398L94.2183 37.554C94.1586 37.5341 94.0758 37.5092 93.9697 37.4794C93.867 37.4496 93.7311 37.4347 93.5621 37.4347C93.1743 37.4347 92.8942 37.5324 92.7219 37.728C92.5528 37.9235 92.4683 38.2102 92.4683 38.5881V47H91.295ZM49.8699 53.8182V64H48.6369V55.1108H48.5772L46.0914 56.7614V55.5085L48.6369 53.8182H49.8699ZM56.1191 64.1392C55.3701 64.1392 54.7321 63.9354 54.2051 63.5277C53.6781 63.1167 53.2754 62.5218 52.997 61.7429C52.7186 60.9607 52.5794 60.0161 52.5794 58.9091C52.5794 57.8087 52.7186 56.8691 52.997 56.0902C53.2787 55.308 53.6831 54.7114 54.21 54.3004C54.7404 53.8861 55.3767 53.679 56.1191 53.679C56.8616 53.679 57.4963 53.8861 58.0233 54.3004C58.5536 54.7114 58.9579 55.308 59.2363 56.0902C59.5181 56.8691 59.6589 57.8087 59.6589 58.9091C59.6589 60.0161 59.5197 60.9607 59.2413 61.7429C58.9629 62.5218 58.5602 63.1167 58.0332 63.5277C57.5062 63.9354 56.8682 64.1392 56.1191 64.1392ZM56.1191 63.0455C56.8616 63.0455 57.4383 62.6875 57.8493 61.9716C58.2602 61.2557 58.4657 60.2348 58.4657 58.9091C58.4657 58.0275 58.3713 57.2768 58.1824 56.657C57.9967 56.0372 57.7283 55.5649 57.377 55.2401C57.0289 54.9152 56.6097 54.7528 56.1191 54.7528C55.3833 54.7528 54.8083 55.1158 54.394 55.8416C53.9797 56.5642 53.7725 57.5866 53.7725 58.9091C53.7725 59.7907 53.8654 60.5398 54.051 61.1562C54.2366 61.7727 54.5034 62.2417 54.8514 62.5632C55.2027 62.8847 55.6253 63.0455 56.1191 63.0455ZM65.6646 64V53.8182H66.8379V57.5767H66.9373C67.0235 57.4441 67.1428 57.2751 67.2953 57.0696C67.4511 56.8608 67.6731 56.6752 67.9615 56.5128C68.2531 56.3471 68.6475 56.2642 69.1447 56.2642C69.7877 56.2642 70.3545 56.425 70.845 56.7464C71.3355 57.0679 71.7183 57.5237 71.9934 58.1136C72.2685 58.7036 72.4061 59.3996 72.4061 60.2017C72.4061 61.0104 72.2685 61.7114 71.9934 62.3047C71.7183 62.8946 71.3372 63.352 70.85 63.6768C70.3627 63.9983 69.801 64.1591 69.1646 64.1591C68.6741 64.1591 68.2813 64.0779 67.9863 63.9155C67.6913 63.7498 67.4643 63.5625 67.3052 63.3537C67.1461 63.1416 67.0235 62.9659 66.9373 62.8267H66.7981V64H65.6646ZM66.818 60.1818C66.818 60.7585 66.9025 61.2673 67.0716 61.7081C67.2406 62.1456 67.4875 62.4886 67.8123 62.7372C68.1371 62.9825 68.5349 63.1051 69.0055 63.1051C69.496 63.1051 69.9054 62.9759 70.2335 62.7173C70.5649 62.4555 70.8135 62.1042 70.9792 61.6634C71.1483 61.2192 71.2328 60.7254 71.2328 60.1818C71.2328 59.6449 71.1499 59.161 70.9842 58.7301C70.8218 58.2959 70.5749 57.9529 70.2434 57.701C69.9153 57.4458 69.5027 57.3182 69.0055 57.3182C68.5282 57.3182 68.1272 57.4392 67.8024 57.6811C67.4776 57.9197 67.2323 58.2545 67.0666 58.6854C66.9009 59.1129 66.818 59.6117 66.818 60.1818ZM77.3031 64.1591C76.6137 64.1591 76.0088 63.995 75.4885 63.6669C74.9714 63.3388 74.5671 62.8797 74.2754 62.2898C73.987 61.6998 73.8429 61.0104 73.8429 60.2216C73.8429 59.4261 73.987 58.7318 74.2754 58.1385C74.5671 57.5452 74.9714 57.0845 75.4885 56.7564C76.0088 56.4283 76.6137 56.2642 77.3031 56.2642C77.9925 56.2642 78.5957 56.4283 79.1127 56.7564C79.6331 57.0845 80.0375 57.5452 80.3258 58.1385C80.6175 58.7318 80.7633 59.4261 80.7633 60.2216C80.7633 61.0104 80.6175 61.6998 80.3258 62.2898C80.0375 62.8797 79.6331 63.3388 79.1127 63.6669C78.5957 63.995 77.9925 64.1591 77.3031 64.1591ZM77.3031 63.1051C77.8268 63.1051 78.2576 62.9709 78.5957 62.7024C78.9338 62.4339 79.184 62.081 79.3464 61.6435C79.5088 61.206 79.59 60.732 79.59 60.2216C79.59 59.7112 79.5088 59.2356 79.3464 58.7947C79.184 58.3539 78.9338 57.9976 78.5957 57.7259C78.2576 57.4541 77.8268 57.3182 77.3031 57.3182C76.7794 57.3182 76.3485 57.4541 76.0105 57.7259C75.6724 57.9976 75.4222 58.3539 75.2598 58.7947C75.0974 59.2356 75.0162 59.7112 75.0162 60.2216C75.0162 60.732 75.0974 61.206 75.2598 61.6435C75.4222 62.081 75.6724 62.4339 76.0105 62.7024C76.3485 62.9709 76.7794 63.1051 77.3031 63.1051ZM85.6566 64.1591C84.9672 64.1591 84.3623 63.995 83.842 63.6669C83.3249 63.3388 82.9206 62.8797 82.6289 62.2898C82.3406 61.6998 82.1964 61.0104 82.1964 60.2216C82.1964 59.4261 82.3406 58.7318 82.6289 58.1385C82.9206 57.5452 83.3249 57.0845 83.842 56.7564C84.3623 56.4283 84.9672 56.2642 85.6566 56.2642C86.346 56.2642 86.9492 56.4283 87.4663 56.7564C87.9866 57.0845 88.391 57.5452 88.6793 58.1385C88.971 58.7318 89.1168 59.4261 89.1168 60.2216C89.1168 61.0104 88.971 61.6998 88.6793 62.2898C88.391 62.8797 87.9866 63.3388 87.4663 63.6669C86.9492 63.995 86.346 64.1591 85.6566 64.1591ZM85.6566 63.1051C86.1803 63.1051 86.6112 62.9709 86.9492 62.7024C87.2873 62.4339 87.5375 62.081 87.6999 61.6435C87.8623 61.206 87.9435 60.732 87.9435 60.2216C87.9435 59.7112 87.8623 59.2356 87.6999 58.7947C87.5375 58.3539 87.2873 57.9976 86.9492 57.7259C86.6112 57.4541 86.1803 57.3182 85.6566 57.3182C85.1329 57.3182 84.7021 57.4541 84.364 57.7259C84.0259 57.9976 83.7757 58.3539 83.6133 58.7947C83.4509 59.2356 83.3697 59.7112 83.3697 60.2216C83.3697 60.732 83.4509 61.206 83.6133 61.6435C83.7757 62.081 84.0259 62.4339 84.364 62.7024C84.7021 62.9709 85.1329 63.1051 85.6566 63.1051ZM92.0016 61.2159L91.9817 59.7642H92.2203L95.5613 56.3636H97.013L93.4533 59.9631H93.3539L92.0016 61.2159ZM90.9078 64V53.8182H92.0811V64H90.9078ZM95.7601 64L92.7772 60.2216L93.6124 59.4062L97.2516 64H95.7601ZM103.932 58.0739L102.878 58.3722C102.812 58.1965 102.714 58.0258 102.585 57.8601C102.459 57.6911 102.287 57.5518 102.068 57.4425C101.849 57.3331 101.569 57.2784 101.228 57.2784C100.76 57.2784 100.371 57.3861 100.059 57.6016C99.7511 57.8137 99.5969 58.0838 99.5969 58.4119C99.5969 58.7036 99.703 58.9339 99.9151 59.103C100.127 59.272 100.459 59.4129 100.909 59.5256L102.043 59.804C102.726 59.9697 103.234 60.2232 103.569 60.5646C103.904 60.9027 104.071 61.3385 104.071 61.8722C104.071 62.3097 103.945 62.7008 103.694 63.0455C103.445 63.3902 103.097 63.6619 102.65 63.8608C102.202 64.0597 101.682 64.1591 101.088 64.1591C100.31 64.1591 99.6649 63.9901 99.1545 63.652C98.6441 63.3139 98.3209 62.8201 98.185 62.1705L99.2987 61.892C99.4047 62.303 99.6052 62.6113 99.9002 62.8168C100.199 63.0223 100.588 63.125 101.069 63.125C101.615 63.125 102.05 63.009 102.371 62.777C102.696 62.5417 102.858 62.2599 102.858 61.9318C102.858 61.6667 102.766 61.4446 102.58 61.2656C102.394 61.0833 102.109 60.9474 101.725 60.858L100.452 60.5597C99.7527 60.3939 99.239 60.1371 98.9109 59.7891C98.5861 59.4377 98.4237 58.9986 98.4237 58.4716C98.4237 58.0407 98.5446 57.6596 98.7866 57.3281C99.0318 56.9967 99.3649 56.7365 99.7859 56.5476C100.21 56.3587 100.691 56.2642 101.228 56.2642C101.983 56.2642 102.577 56.4299 103.007 56.7614C103.442 57.0928 103.75 57.5303 103.932 58.0739Z" fill="#7F7F7F"/>
<path d="M52.0083 108.091V77.1818H53.9885V108.091H52.0083ZM57.2605 87.3842C57.1639 86.4103 56.7493 85.6536 56.0169 85.1143C55.2844 84.575 54.2903 84.3054 53.0346 84.3054C52.1814 84.3054 51.461 84.4261 50.8734 84.6676C50.2858 84.901 49.835 85.227 49.5211 85.6456C49.2153 86.0642 49.0623 86.5391 49.0623 87.0703C49.0462 87.513 49.1388 87.8994 49.34 88.2294C49.5493 88.5594 49.835 88.8452 50.1973 89.0866C50.5595 89.3201 50.978 89.5253 51.4529 89.7024C51.9279 89.8714 52.435 90.0163 52.9743 90.1371L55.1958 90.6683C56.2744 90.9098 57.2645 91.2318 58.166 91.6342C59.0675 92.0367 59.8483 92.5317 60.5083 93.1193C61.1684 93.7069 61.6795 94.3991 62.0417 95.196C62.412 95.9929 62.6011 96.9065 62.6092 97.9368C62.6011 99.45 62.2148 100.762 61.4501 101.873C60.6935 102.976 59.5988 103.833 58.166 104.445C56.7413 105.048 55.0228 105.35 53.0105 105.35C51.0143 105.35 49.2756 105.044 47.7946 104.433C46.3216 103.821 45.1705 102.915 44.3414 101.716C43.5204 100.509 43.0898 99.0154 43.0495 97.2365H48.1085C48.1648 98.0656 48.4023 98.7578 48.8208 99.3132C49.2475 99.8606 49.8149 100.275 50.5233 100.557C51.2396 100.83 52.0486 100.967 52.9501 100.967C53.8355 100.967 54.6042 100.839 55.2562 100.581C55.9163 100.323 56.4274 99.9652 56.7896 99.5064C57.1518 99.0476 57.3329 98.5204 57.3329 97.9247C57.3329 97.3693 57.1679 96.9025 56.8379 96.5241C56.5159 96.1458 56.041 95.8239 55.4132 95.5582C54.7934 95.2926 54.0327 95.0511 53.1312 94.8338L50.4387 94.1577C48.354 93.6506 46.7079 92.8577 45.5005 91.7791C44.2931 90.7005 43.6935 89.2476 43.7015 87.4205C43.6935 85.9233 44.0919 84.6153 44.8968 83.4964C45.7098 82.3776 46.8246 81.5043 48.2413 80.8764C49.658 80.2486 51.2678 79.9347 53.0708 79.9347C54.9061 79.9347 56.5079 80.2486 57.8762 80.8764C59.2527 81.5043 60.3232 82.3776 61.0879 83.4964C61.8526 84.6153 62.247 85.9112 62.2711 87.3842H57.2605ZM75.1207 105.338C73.3177 105.338 71.7119 105.028 70.3033 104.408C68.9027 103.781 67.7959 102.919 66.983 101.825C66.178 100.722 65.7635 99.45 65.7393 98.0092H71.0036C71.0357 98.6129 71.233 99.1442 71.5952 99.603C71.9654 100.054 72.4564 100.404 73.0682 100.653C73.6799 100.903 74.3681 101.028 75.1328 101.028C75.9297 101.028 76.634 100.887 77.2457 100.605C77.8575 100.323 78.3364 99.933 78.6825 99.4339C79.0286 98.9349 79.2017 98.3594 79.2017 97.7074C79.2017 97.0473 79.0166 96.4638 78.6463 95.9567C78.2841 95.4415 77.7609 95.0391 77.0767 94.7493C76.4006 94.4595 75.5956 94.3146 74.6619 94.3146H72.3558V90.4751H74.6619C75.4508 90.4751 76.147 90.3383 76.7507 90.0646C77.3625 89.791 77.8374 89.4126 78.1754 88.9297C78.5135 88.4387 78.6825 87.8672 78.6825 87.2152C78.6825 86.5954 78.5336 86.0521 78.2358 85.5852C77.946 85.1103 77.5355 84.7401 77.0043 84.4744C76.4811 84.2088 75.8693 84.076 75.169 84.076C74.4607 84.076 73.8127 84.2048 73.2251 84.4624C72.6375 84.7119 72.1667 85.0701 71.8125 85.5369C71.4583 86.0038 71.2692 86.5511 71.245 87.179H66.2344C66.2585 85.7543 66.665 84.4986 67.4538 83.4119C68.2427 82.3253 69.3052 81.4761 70.6413 80.8643C71.9856 80.2446 73.5028 79.9347 75.1932 79.9347C76.8996 79.9347 78.3928 80.2446 79.6726 80.8643C80.9524 81.4841 81.9465 82.3213 82.6548 83.3757C83.3712 84.4221 83.7254 85.5973 83.7173 86.9013C83.7254 88.2857 83.2947 89.4408 82.4254 90.3665C81.5642 91.2921 80.4413 91.8797 79.0568 92.1293V92.3224C80.8759 92.5559 82.2604 93.1877 83.2102 94.218C84.1681 95.2403 84.643 96.5201 84.6349 98.0575C84.643 99.4661 84.2365 100.718 83.4155 101.812C82.6025 102.907 81.4796 103.768 80.0469 104.396C78.6141 105.024 76.9721 105.338 75.1207 105.338ZM97.4242 105.338C95.7177 105.338 94.1964 105.024 92.8603 104.396C91.5321 103.768 90.4777 102.903 89.6969 101.8C88.9161 100.698 88.5096 99.4339 88.4775 98.0092H93.5485C93.6048 98.9671 94.0073 99.7438 94.7559 100.339C95.5044 100.935 96.3939 101.233 97.4242 101.233C98.2452 101.233 98.9696 101.052 99.5975 100.69C100.233 100.319 100.728 99.8082 101.083 99.1562C101.445 98.4962 101.626 97.7396 101.626 96.8864C101.626 96.017 101.441 95.2524 101.07 94.5923C100.708 93.9323 100.205 93.4171 99.5613 93.0469C98.9173 92.6766 98.1808 92.4875 97.3517 92.4794C96.6273 92.4794 95.923 92.6283 95.2388 92.9261C94.5627 93.224 94.0355 93.6304 93.6571 94.1456L89.0087 93.3125L90.1799 80.2727H105.296V84.5469H94.4902L93.8503 90.7408H93.9952C94.4299 90.129 95.0859 89.6219 95.9632 89.2195C96.8406 88.817 97.8226 88.6158 98.9093 88.6158C100.398 88.6158 101.727 88.9659 102.894 89.6662C104.061 90.3665 104.982 91.3284 105.659 92.5518C106.335 93.7673 106.669 95.1679 106.661 96.7536C106.669 98.4197 106.282 99.9008 105.502 101.197C104.729 102.485 103.646 103.499 102.254 104.239C100.869 104.972 99.2594 105.338 97.4242 105.338Z" fill="black"/>
</svg>
