<svg width="250" height="251" viewBox="0 0 250 251" fill="none" xmlns="http://www.w3.org/2000/svg">
<g clip-path="url(#clip0_276_3832)">
<g filter="url(#filter0_b_276_3832)">
<path d="M229.854 190.305L172.769 174.016L187.085 231.732L144.1 190.729L130.01 248.505L110.96 192.173L71.6918 236.766L80.9505 178.024L25.4919 199.223L60.9343 151.515L2 144.465L55.5112 118.725L6.59485 85.0375L65.9137 87.1673L38.2263 34.5583L89.7606 64.0649L89.6422 4.5883L121.589 54.7125L149.07 2L154.108 61.2597L202.891 27.3752L179.868 82.1929L238.778 74.9111L192.967 112.73L248.505 133.712L190.408 145.87L229.854 190.305Z" fill="white" stroke="black" stroke-width="2" stroke-miterlimit="10"/>
</g>
<g clip-path="url(#clip1_276_3832)">
<path d="M141.666 82.7268C141.002 82.4408 140.486 82.0172 140.106 81.4558C139.732 80.8892 139.532 80.2272 139.505 79.4647C139.479 78.7021 139.658 77.876 140.032 76.981C140.407 76.0861 140.881 75.3871 141.45 74.8787C142.019 74.3703 142.63 74.0632 143.294 73.9466C143.958 73.8301 144.622 73.9149 145.281 74.1955C145.792 74.4127 146.166 74.6721 146.409 74.9793C146.651 75.2811 146.809 75.583 146.883 75.8848C146.962 76.1867 147.009 76.4409 147.036 76.6527L147.131 76.6951L148.864 72.6016L150.466 73.2847L145.808 84.2996L144.243 83.6323L144.786 82.3455L144.654 82.2872C144.485 82.4196 144.259 82.5626 143.985 82.7109C143.711 82.8592 143.379 82.9492 142.994 82.9863C142.609 83.018 142.167 82.9333 141.666 82.7162V82.7268ZM142.599 81.5035C143.057 81.6994 143.5 81.7418 143.921 81.6359C144.343 81.5247 144.733 81.2864 145.081 80.921C145.434 80.5556 145.729 80.079 145.977 79.5017C146.219 78.9298 146.351 78.3897 146.367 77.8919C146.382 77.3941 146.287 76.9546 146.071 76.5786C145.855 76.2026 145.513 75.9166 145.049 75.7154C144.57 75.5089 144.111 75.4612 143.684 75.5777C143.257 75.6889 142.873 75.9325 142.525 76.2926C142.177 76.658 141.893 77.1134 141.661 77.6589C141.429 78.2096 141.297 78.7445 141.276 79.2529C141.255 79.7612 141.35 80.2167 141.566 80.6085C141.782 81.0004 142.124 81.3023 142.599 81.5035Z" fill="black"/>
<path d="M147.542 85.4547L152.216 77.8078L153.696 78.724L149.022 86.3708L147.542 85.4547ZM153.686 77.0876C153.428 76.9287 153.259 76.7063 153.185 76.4151C153.106 76.1291 153.143 75.8643 153.291 75.6207C153.444 75.3771 153.66 75.2236 153.949 75.16C154.239 75.0965 154.513 75.1494 154.771 75.3083C155.03 75.4672 155.198 75.6896 155.272 75.9755C155.346 76.2615 155.314 76.5263 155.167 76.7699C155.014 77.0135 154.798 77.167 154.508 77.2306C154.218 77.2941 153.944 77.2412 153.686 77.0823V77.0876Z" fill="black"/>
<path d="M160.168 86.3709L158.771 85.5871C158.845 85.3859 158.887 85.174 158.892 84.941C158.892 84.708 158.845 84.4697 158.729 84.2261C158.618 83.9825 158.418 83.7495 158.139 83.5165C157.759 83.2041 157.369 83.0293 156.974 82.9923C156.579 82.9552 156.273 83.0717 156.057 83.3365C155.868 83.5695 155.804 83.829 155.857 84.1096C155.915 84.3903 156.094 84.7345 156.405 85.137L157.301 86.2914C157.817 86.9587 158.107 87.5783 158.17 88.1396C158.234 88.7009 158.065 89.2305 157.665 89.723C157.327 90.1413 156.906 90.4114 156.405 90.5438C155.905 90.6762 155.367 90.655 154.787 90.4908C154.213 90.3267 153.644 90.0142 153.085 89.5588C152.311 88.9233 151.81 88.2402 151.594 87.5041C151.378 86.768 151.457 86.0478 151.847 85.3382L153.312 86.2067C153.117 86.6145 153.075 87.0063 153.185 87.3876C153.296 87.7689 153.554 88.1237 153.96 88.4573C154.403 88.8174 154.83 89.0134 155.246 89.0451C155.662 89.0769 155.978 88.9551 156.194 88.6903C156.368 88.4732 156.437 88.2243 156.4 87.9436C156.358 87.663 156.205 87.3505 155.936 87.0063L154.972 85.7883C154.445 85.1105 154.16 84.4856 154.113 83.9084C154.065 83.3312 154.245 82.7963 154.645 82.3038C154.977 81.8908 155.383 81.626 155.862 81.5042C156.342 81.3824 156.853 81.3983 157.396 81.5571C157.939 81.7107 158.471 82.002 158.993 82.4309C159.741 83.0452 160.199 83.686 160.363 84.3638C160.526 85.0417 160.463 85.7089 160.157 86.3656L160.168 86.3709Z" fill="black"/>
<path d="M159.308 95.744C158.75 95.0821 158.423 94.383 158.318 93.6469C158.218 92.9162 158.323 92.196 158.639 91.4863C158.955 90.782 159.456 90.136 160.141 89.5587C160.837 88.9709 161.559 88.5843 162.307 88.3937C163.055 88.2031 163.782 88.2189 164.483 88.4414C165.184 88.6638 165.806 89.098 166.349 89.7441C166.786 90.2631 167.081 90.8085 167.234 91.3804C167.387 91.9524 167.397 92.5084 167.266 93.0485C167.134 93.594 166.86 94.0812 166.438 94.5207L165.347 93.2233C165.606 92.8791 165.748 92.4819 165.764 92.0318C165.78 91.5817 165.611 91.1421 165.253 90.7185C164.942 90.3478 164.568 90.1042 164.141 89.9877C163.714 89.8765 163.255 89.8924 162.771 90.0406C162.286 90.1889 161.796 90.4696 161.311 90.8826C160.816 91.3063 160.447 91.7458 160.215 92.2012C159.983 92.662 159.883 93.1121 159.914 93.5569C159.946 94.0018 160.125 94.4148 160.441 94.7961C160.652 95.0503 160.895 95.2409 161.163 95.368C161.432 95.4951 161.711 95.5587 162.007 95.5481C162.302 95.5428 162.591 95.4633 162.887 95.3098L163.977 96.6072C163.498 96.9355 162.981 97.1262 162.433 97.1791C161.885 97.2321 161.343 97.1421 160.805 96.9038C160.268 96.6654 159.772 96.2789 159.314 95.7387L159.308 95.744Z" fill="black"/>
<path d="M164.209 102.956C163.804 102.22 163.619 101.484 163.656 100.748C163.693 100.012 163.93 99.3232 164.367 98.6877C164.805 98.0522 165.427 97.5068 166.238 97.062C167.05 96.6118 167.845 96.3735 168.62 96.3418C169.395 96.31 170.101 96.4741 170.738 96.8395C171.376 97.2049 171.898 97.7557 172.298 98.4918C172.704 99.2279 172.888 99.964 172.852 100.7C172.815 101.436 172.577 102.125 172.135 102.765C171.692 103.406 171.065 103.952 170.254 104.396C169.442 104.841 168.657 105.08 167.882 105.111C167.113 105.143 166.407 104.974 165.769 104.613C165.131 104.248 164.61 103.697 164.209 102.961V102.956ZM165.49 102.252C165.753 102.728 166.096 103.057 166.517 103.231C166.939 103.406 167.403 103.454 167.903 103.374C168.404 103.295 168.905 103.115 169.41 102.839C169.911 102.564 170.327 102.236 170.665 101.849C171.002 101.463 171.213 101.044 171.292 100.589C171.376 100.133 171.286 99.6674 171.023 99.1908C170.759 98.7089 170.412 98.3806 169.985 98.2058C169.558 98.0311 169.094 97.9834 168.588 98.0628C168.088 98.1423 167.587 98.3223 167.087 98.5977C166.586 98.8731 166.164 99.2067 165.832 99.588C165.5 99.9692 165.29 100.388 165.211 100.843C165.131 101.298 165.226 101.764 165.49 102.246V102.252Z" fill="black"/>
<path d="M172.077 112.176L177.073 110.63L177.589 112.303L169.052 114.946L168.546 113.304L170.027 112.848L170.001 112.758C169.484 112.7 169.01 112.504 168.573 112.165C168.135 111.826 167.819 111.334 167.624 110.688C167.456 110.137 167.429 109.613 167.54 109.115C167.65 108.617 167.914 108.172 168.314 107.786C168.72 107.399 169.274 107.092 169.98 106.875L175.407 105.196L175.919 106.864L170.691 108.485C170.111 108.665 169.695 108.972 169.453 109.401C169.21 109.83 169.163 110.307 169.321 110.826C169.416 111.138 169.59 111.424 169.843 111.689C170.096 111.953 170.407 112.139 170.786 112.245C171.165 112.356 171.597 112.329 172.082 112.176H172.077Z" fill="black"/>
<path d="M174.843 117.921L169.563 118.435L169.395 116.698L178.284 115.835L178.443 117.503L176.993 117.641L177.004 117.752C177.494 117.911 177.905 118.197 178.232 118.61C178.558 119.023 178.753 119.563 178.822 120.236C178.88 120.845 178.806 121.39 178.595 121.872C178.385 122.354 178.047 122.746 177.573 123.048C177.099 123.349 176.498 123.535 175.76 123.604L170.106 124.149L169.937 122.412L175.386 121.883C176.029 121.819 176.519 121.602 176.851 121.231C177.183 120.86 177.32 120.379 177.267 119.785C177.23 119.383 177.109 119.034 176.904 118.737C176.698 118.44 176.424 118.218 176.071 118.07C175.718 117.921 175.307 117.868 174.838 117.916L174.843 117.921Z" fill="black"/>
<path d="M181.004 127.364L180.888 129.106L172.456 128.545C172.119 128.523 171.866 128.555 171.687 128.645C171.508 128.735 171.387 128.857 171.318 129.016C171.25 129.175 171.208 129.35 171.192 129.54C171.181 129.678 171.187 129.805 171.192 129.911C171.197 130.017 171.213 130.102 171.223 130.16L169.769 130.377C169.737 130.271 169.706 130.128 169.679 129.937C169.653 129.747 169.642 129.514 169.658 129.233C169.679 128.772 169.79 128.354 169.985 127.967C170.18 127.581 170.465 127.279 170.839 127.057C171.213 126.834 171.666 126.744 172.204 126.776L180.993 127.358L181.004 127.364ZM178.633 130.801L177.241 130.711L177.563 125.817L178.954 125.907L178.633 130.801Z" fill="black"/>
<path d="M167.814 138.151C167.988 137.611 168.251 137.156 168.594 136.785C168.936 136.414 169.342 136.166 169.806 136.038C170.269 135.911 170.781 135.938 171.339 136.123C171.819 136.282 172.182 136.504 172.43 136.79C172.678 137.076 172.841 137.41 172.92 137.781C172.999 138.157 173.02 138.554 172.983 138.972C172.946 139.391 172.888 139.809 172.804 140.233C172.699 140.762 172.609 141.191 172.546 141.525C172.483 141.858 172.467 142.107 172.509 142.282C172.551 142.457 172.672 142.573 172.867 142.642L172.904 142.653C173.389 142.812 173.805 142.801 174.158 142.616C174.511 142.43 174.775 142.07 174.949 141.535C175.133 140.974 175.149 140.497 175.012 140.095C174.87 139.692 174.67 139.385 174.411 139.163L175.276 137.717C175.729 138.072 176.061 138.48 176.261 138.94C176.461 139.401 176.561 139.888 176.556 140.407C176.551 140.921 176.461 141.435 176.293 141.954C176.182 142.293 176.024 142.642 175.818 143.002C175.613 143.357 175.355 143.669 175.033 143.94C174.712 144.204 174.327 144.384 173.869 144.469C173.41 144.554 172.873 144.496 172.251 144.294L166.612 142.441L167.139 140.82L168.299 141.202L168.32 141.133C168.14 140.953 167.982 140.725 167.845 140.444C167.708 140.164 167.629 139.83 167.603 139.449C167.577 139.068 167.64 138.639 167.793 138.173L167.814 138.151ZM169.021 138.951C168.873 139.412 168.831 139.835 168.91 140.222C168.984 140.609 169.136 140.937 169.374 141.207C169.611 141.477 169.895 141.662 170.233 141.774L171.329 142.134C171.286 142.054 171.271 141.922 171.276 141.737C171.281 141.551 171.302 141.345 171.334 141.122C171.366 140.9 171.408 140.677 171.445 140.466C171.481 140.254 171.513 140.074 171.539 139.931C171.603 139.597 171.629 139.279 171.624 138.983C171.613 138.686 171.545 138.432 171.418 138.215C171.292 137.998 171.081 137.844 170.786 137.744C170.375 137.611 170.016 137.659 169.711 137.897C169.405 138.13 169.173 138.485 169.021 138.956V138.951Z" fill="black"/>
<path d="M168.557 153.243L169.073 151.724C169.284 151.766 169.5 151.766 169.727 151.729C169.953 151.692 170.18 151.597 170.396 151.443C170.612 151.289 170.812 151.051 170.986 150.733C171.223 150.299 171.329 149.886 171.297 149.489C171.266 149.092 171.097 148.811 170.797 148.642C170.533 148.499 170.27 148.477 170.006 148.583C169.743 148.689 169.437 148.928 169.094 149.309L168.125 150.4C167.561 151.03 167.008 151.427 166.465 151.591C165.922 151.755 165.374 151.681 164.826 151.374C164.357 151.115 164.015 150.749 163.798 150.273C163.582 149.796 163.503 149.261 163.561 148.668C163.619 148.07 163.825 147.455 164.173 146.82C164.657 145.941 165.237 145.327 165.917 144.977C166.597 144.627 167.319 144.585 168.083 144.845L167.493 146.449C167.06 146.327 166.665 146.359 166.312 146.534C165.959 146.714 165.659 147.032 165.406 147.492C165.132 147.996 165.016 148.451 165.058 148.869C165.1 149.288 165.274 149.579 165.574 149.743C165.817 149.881 166.075 149.902 166.338 149.812C166.602 149.722 166.887 149.515 167.176 149.187L168.199 148.017C168.768 147.376 169.332 146.979 169.885 146.836C170.438 146.687 170.997 146.767 171.55 147.079C172.014 147.334 172.346 147.688 172.546 148.138C172.752 148.589 172.825 149.097 172.767 149.664C172.709 150.23 172.52 150.807 172.198 151.395C171.729 152.243 171.181 152.809 170.549 153.095C169.917 153.381 169.253 153.434 168.552 153.249L168.557 153.243Z" fill="black"/>
<path d="M157.28 156.23C157.68 155.827 158.112 155.536 158.586 155.356C159.061 155.181 159.53 155.139 160.004 155.234C160.478 155.33 160.921 155.584 161.337 155.997C161.695 156.352 161.922 156.717 162.017 157.088C162.112 157.458 162.112 157.824 162.017 158.195C161.922 158.565 161.764 158.931 161.543 159.285C161.327 159.646 161.084 159.995 160.821 160.329C160.489 160.752 160.22 161.102 160.014 161.367C159.809 161.631 159.688 161.854 159.646 162.029C159.603 162.203 159.661 162.362 159.809 162.51L159.835 162.537C160.194 162.897 160.578 163.072 160.974 163.066C161.374 163.061 161.769 162.855 162.164 162.457C162.576 162.039 162.807 161.621 162.865 161.197C162.918 160.773 162.876 160.408 162.744 160.096L164.162 159.195C164.409 159.72 164.52 160.233 164.499 160.736C164.473 161.24 164.341 161.721 164.109 162.177C163.872 162.632 163.566 163.056 163.187 163.437C162.934 163.691 162.639 163.935 162.296 164.157C161.954 164.385 161.58 164.544 161.179 164.639C160.773 164.735 160.346 164.713 159.899 164.586C159.451 164.459 158.992 164.163 158.534 163.702L154.323 159.503L155.519 158.29L156.389 159.153L156.436 159.105C156.357 158.867 156.315 158.592 156.32 158.274C156.32 157.962 156.399 157.628 156.547 157.273C156.695 156.918 156.942 156.569 157.285 156.214L157.28 156.23ZM158.007 157.485C157.669 157.829 157.443 158.189 157.337 158.571C157.232 158.952 157.222 159.312 157.316 159.661C157.406 160.006 157.58 160.307 157.828 160.556L158.644 161.372C158.644 161.282 158.687 161.16 158.776 160.996C158.866 160.832 158.971 160.657 159.103 160.472C159.235 160.286 159.366 160.106 159.498 159.931C159.63 159.757 159.735 159.614 159.825 159.497C160.03 159.227 160.199 158.957 160.32 158.687C160.441 158.417 160.499 158.157 160.478 157.909C160.462 157.66 160.341 157.421 160.12 157.204C159.814 156.897 159.472 156.786 159.092 156.855C158.713 156.929 158.349 157.141 158.001 157.49L158.007 157.485Z" fill="black"/>
<path d="M147.088 172.287L148.327 171.265C148.485 171.408 148.669 171.524 148.88 171.614C149.091 171.704 149.333 171.741 149.597 171.725C149.86 171.709 150.155 171.609 150.466 171.434C150.893 171.191 151.199 170.894 151.378 170.539C151.557 170.184 151.562 169.856 151.394 169.554C151.246 169.295 151.035 169.136 150.751 169.088C150.466 169.035 150.087 169.088 149.597 169.226L148.2 169.639C147.389 169.877 146.714 169.925 146.166 169.777C145.618 169.628 145.191 169.279 144.88 168.728C144.617 168.262 144.517 167.77 144.58 167.251C144.643 166.732 144.859 166.234 145.218 165.757C145.581 165.281 146.076 164.862 146.704 164.507C147.573 164.015 148.39 163.798 149.154 163.861C149.913 163.925 150.55 164.269 151.067 164.889L149.728 165.943C149.423 165.609 149.07 165.429 148.68 165.392C148.284 165.355 147.863 165.471 147.404 165.725C146.909 166.006 146.572 166.334 146.387 166.71C146.203 167.086 146.203 167.425 146.372 167.727C146.509 167.971 146.714 168.124 146.988 168.188C147.262 168.251 147.61 168.22 148.026 168.098L149.507 167.642C150.324 167.399 151.009 167.356 151.562 167.526C152.11 167.695 152.542 168.056 152.853 168.612C153.111 169.072 153.212 169.549 153.148 170.041C153.085 170.534 152.885 171.005 152.542 171.455C152.2 171.905 151.736 172.297 151.151 172.631C150.308 173.108 149.544 173.298 148.859 173.208C148.174 173.118 147.578 172.811 147.078 172.287H147.088Z" fill="black"/>
<path d="M138.646 168.077C139.479 167.796 140.259 167.738 140.981 167.896C141.703 168.055 142.335 168.41 142.878 168.956C143.421 169.501 143.837 170.216 144.132 171.1C144.422 171.974 144.512 172.795 144.406 173.568C144.301 174.341 144.016 175.014 143.552 175.586C143.089 176.158 142.467 176.571 141.676 176.835C141.197 176.994 140.707 177.074 140.206 177.063C139.706 177.053 139.221 176.941 138.752 176.719C138.283 176.497 137.856 176.152 137.471 175.681C137.087 175.21 136.765 174.585 136.507 173.812L136.312 173.224L143.047 170.968L143.458 172.212L138.336 173.928C138.478 174.362 138.699 174.723 138.984 175.003C139.268 175.284 139.611 175.469 139.99 175.554C140.375 175.644 140.781 175.617 141.207 175.475C141.671 175.321 142.035 175.072 142.304 174.728C142.572 174.384 142.741 174.002 142.804 173.573C142.867 173.144 142.831 172.721 142.688 172.297L142.367 171.328C142.177 170.761 141.919 170.306 141.587 169.978C141.255 169.644 140.87 169.438 140.443 169.347C140.017 169.257 139.558 169.295 139.079 169.459C138.768 169.565 138.494 169.702 138.267 169.882C138.04 170.057 137.861 170.269 137.735 170.513C137.608 170.756 137.54 171.026 137.529 171.328L135.875 171.566C135.848 171.063 135.938 170.581 136.143 170.131C136.349 169.676 136.665 169.273 137.087 168.924C137.508 168.569 138.025 168.294 138.646 168.087V168.077Z" fill="black"/>
<path d="M134.752 180.727L133.034 181.003L131.701 172.614C131.648 172.281 131.559 172.037 131.432 171.884C131.306 171.73 131.158 171.64 130.99 171.603C130.821 171.566 130.642 171.566 130.457 171.598C130.32 171.619 130.199 171.651 130.099 171.682C129.999 171.72 129.92 171.746 129.867 171.767L129.33 170.39C129.424 170.337 129.556 170.274 129.735 170.205C129.915 170.136 130.141 170.078 130.415 170.03C130.868 169.951 131.3 169.961 131.717 170.073C132.133 170.178 132.491 170.39 132.792 170.703C133.092 171.015 133.282 171.444 133.366 171.979L134.757 180.722L134.752 180.727ZM130.889 179.17L130.668 177.783L135.485 177.01L135.706 178.397L130.889 179.17Z" fill="black"/>
<path d="M120.461 173.759C120.93 173.796 121.346 173.95 121.715 174.209C122.084 174.474 122.363 174.807 122.563 175.215C122.764 175.623 122.843 176.063 122.801 176.529C122.764 177 122.611 177.424 122.347 177.789C122.084 178.154 121.752 178.44 121.346 178.636C120.94 178.837 120.503 178.917 120.034 178.875C119.565 178.837 119.143 178.684 118.78 178.419C118.416 178.154 118.132 177.821 117.937 177.418C117.742 177.016 117.657 176.571 117.7 176.1C117.736 175.628 117.889 175.21 118.153 174.839C118.416 174.469 118.748 174.188 119.149 173.987C119.554 173.785 119.992 173.706 120.461 173.748V173.759Z" fill="black"/>
<path d="M108.773 167.516C109.447 167.775 109.979 168.183 110.369 168.734C110.759 169.284 110.986 169.941 111.033 170.704C111.081 171.466 110.933 172.298 110.585 173.203C110.238 174.109 109.79 174.824 109.236 175.348C108.688 175.872 108.082 176.206 107.424 176.343C106.765 176.481 106.101 176.418 105.432 176.158C104.915 175.957 104.531 175.708 104.283 175.411C104.035 175.115 103.867 174.818 103.777 174.522C103.687 174.225 103.629 173.971 103.603 173.759L103.503 173.722L101.906 177.869L100.283 177.238L104.578 166.075L106.159 166.689L105.658 167.992L105.795 168.045C105.959 167.907 106.18 167.754 106.449 167.6C106.717 167.441 107.044 167.341 107.429 167.293C107.814 167.246 108.256 167.32 108.762 167.516H108.773ZM107.882 168.765C107.413 168.585 106.97 168.554 106.554 168.675C106.138 168.797 105.753 169.051 105.416 169.427C105.079 169.803 104.794 170.291 104.567 170.878C104.346 171.461 104.23 172.001 104.23 172.499C104.23 173.002 104.341 173.436 104.567 173.801C104.794 174.172 105.147 174.448 105.621 174.633C106.111 174.824 106.565 174.855 106.986 174.728C107.408 174.601 107.787 174.347 108.124 173.971C108.456 173.595 108.73 173.129 108.941 172.578C109.157 172.017 109.268 171.482 109.273 170.974C109.278 170.46 109.168 170.015 108.941 169.623C108.715 169.237 108.362 168.951 107.877 168.76L107.882 168.765Z" fill="black"/>
<path d="M96.9422 173.547C97.2057 173.696 97.3796 173.913 97.4639 174.199C97.5482 174.485 97.5218 174.749 97.3848 174.998C97.2425 175.247 97.0265 175.411 96.7419 175.48C96.4574 175.549 96.1781 175.512 95.9146 175.358C95.6511 175.21 95.4772 174.988 95.3929 174.707C95.3086 174.421 95.3349 174.156 95.472 173.907C95.6142 173.658 95.8303 173.494 96.1148 173.425C96.4047 173.357 96.6787 173.394 96.9422 173.547ZM102.813 164.984L98.3913 172.785L96.8789 171.922L101.3 164.121L102.813 164.984Z" fill="black"/>
<path d="M90.1551 164.476L91.5779 165.212C91.5094 165.413 91.4725 165.63 91.4778 165.863C91.4778 166.096 91.541 166.329 91.6622 166.567C91.7834 166.806 91.9889 167.039 92.2735 167.256C92.6634 167.558 93.0587 167.717 93.4539 167.743C93.8491 167.77 94.1495 167.642 94.3603 167.367C94.5394 167.129 94.5974 166.869 94.5342 166.589C94.4709 166.308 94.2759 165.974 93.9545 165.577L93.0218 164.454C92.4843 163.803 92.1734 163.194 92.0943 162.633C92.0153 162.071 92.1628 161.537 92.5475 161.033C92.8742 160.605 93.2853 160.319 93.7806 160.176C94.2759 160.033 94.8187 160.033 95.3984 160.176C95.978 160.319 96.5524 160.615 97.1268 161.055C97.9225 161.664 98.4442 162.331 98.6866 163.062C98.929 163.792 98.8711 164.513 98.5022 165.233L97.0109 164.412C97.1953 163.999 97.2217 163.602 97.1005 163.226C96.974 162.85 96.7053 162.5 96.2889 162.183C95.8358 161.833 95.3984 161.653 94.9873 161.637C94.571 161.621 94.2601 161.748 94.0494 162.024C93.8807 162.246 93.8228 162.495 93.8702 162.776C93.9176 163.056 94.0862 163.364 94.3655 163.697L95.3668 164.883C95.9148 165.545 96.2204 166.16 96.2837 166.732C96.3469 167.303 96.1888 167.844 95.8041 168.352C95.4827 168.776 95.0875 169.051 94.6132 169.189C94.1389 169.326 93.6278 169.326 93.0797 169.189C92.5317 169.051 91.9889 168.776 91.4567 168.368C90.6873 167.78 90.2131 167.15 90.0233 166.477C89.8336 165.805 89.8811 165.138 90.1604 164.47L90.1551 164.476Z" fill="black"/>
<path d="M90.7082 155.081C91.2879 155.727 91.6409 156.416 91.7621 157.141C91.8886 157.872 91.8043 158.592 91.5092 159.307C91.2141 160.022 90.7398 160.684 90.0706 161.282C89.3961 161.891 88.6899 162.304 87.9416 162.516C87.1986 162.728 86.4714 162.739 85.7653 162.537C85.0591 162.336 84.4268 161.923 83.8629 161.298C83.4097 160.79 83.0988 160.255 82.9249 159.694C82.7563 159.127 82.73 158.571 82.8406 158.026C82.9513 157.48 83.2148 156.977 83.6205 156.527L84.7535 157.793C84.5058 158.142 84.3794 158.545 84.3741 158.995C84.3741 159.445 84.5533 159.879 84.9274 160.292C85.2541 160.652 85.6283 160.885 86.0604 160.986C86.4925 161.086 86.9509 161.055 87.4305 160.89C87.91 160.726 88.3896 160.43 88.8638 160.001C89.3486 159.561 89.6964 159.111 89.9177 158.645C90.1391 158.179 90.2234 157.724 90.1707 157.279C90.1233 156.834 89.9283 156.426 89.6016 156.061C89.3802 155.817 89.1326 155.632 88.8638 155.515C88.5951 155.399 88.3105 155.346 88.0154 155.362C87.7203 155.378 87.4305 155.468 87.1406 155.627L86.0077 154.361C86.4767 154.017 86.9878 153.81 87.5359 153.741C88.0839 153.673 88.6267 153.741 89.1747 153.964C89.7175 154.181 90.2287 154.552 90.7029 155.081H90.7082Z" fill="black"/>
<path d="M85.5812 148.038C86.008 148.764 86.2188 149.494 86.2083 150.23C86.1977 150.967 85.9817 151.66 85.5654 152.312C85.1491 152.963 84.5431 153.524 83.7474 154.001C82.9516 154.478 82.1665 154.742 81.3918 154.801C80.6172 154.859 79.9058 154.716 79.2576 154.372C78.6095 154.027 78.0719 153.498 77.6451 152.772C77.2183 152.047 77.0075 151.321 77.0233 150.58C77.0338 149.844 77.2499 149.15 77.6715 148.493C78.093 147.837 78.699 147.276 79.4948 146.799C80.2905 146.328 81.0704 146.063 81.8397 146.005C82.6091 145.946 83.3205 146.095 83.9687 146.433C84.6168 146.778 85.1543 147.307 85.5812 148.033V148.038ZM84.3217 148.779C84.0425 148.308 83.6894 147.996 83.2625 147.837C82.8357 147.678 82.372 147.641 81.8714 147.736C81.3707 147.832 80.8754 148.027 80.3853 148.319C79.8952 148.61 79.4895 148.954 79.1628 149.351C78.8413 149.749 78.6411 150.172 78.5778 150.628C78.5146 151.083 78.6147 151.549 78.894 152.015C79.1733 152.486 79.5316 152.804 79.9637 152.963C80.3959 153.122 80.8649 153.154 81.3655 153.058C81.8661 152.963 82.3614 152.767 82.8515 152.476C83.3469 152.179 83.7526 151.835 84.0741 151.443C84.3955 151.051 84.5905 150.622 84.6537 150.167C84.717 149.711 84.6116 149.245 84.3323 148.774L84.3217 148.779Z" fill="black"/>
<path d="M77.4183 139.093L72.4754 140.804L71.9062 139.146L80.3535 136.218L80.9121 137.844L79.4471 138.352L79.4787 138.442C79.9952 138.479 80.48 138.664 80.9226 138.987C81.3705 139.31 81.7025 139.792 81.9186 140.433C82.1083 140.979 82.1504 141.503 82.0556 142.001C81.9607 142.504 81.7131 142.954 81.3231 143.356C80.9331 143.759 80.3904 144.076 79.6895 144.32L74.3197 146.184L73.7506 144.532L78.9254 142.737C79.4998 142.535 79.9056 142.218 80.1322 141.778C80.364 141.339 80.3904 140.862 80.2165 140.354C80.1111 140.047 79.9266 139.761 79.6684 139.506C79.4102 139.252 79.0888 139.077 78.7041 138.982C78.3247 138.887 77.8926 138.924 77.413 139.093H77.4183Z" fill="black"/>
<path d="M74.457 133.433L79.7161 132.749L79.9374 134.481L71.0791 135.636L70.8631 133.973L72.3069 133.787L72.2911 133.676C71.7958 133.533 71.3795 133.258 71.037 132.861C70.6944 132.458 70.4836 131.923 70.3941 131.256C70.315 130.647 70.373 130.102 70.568 129.614C70.7629 129.127 71.0897 128.725 71.5534 128.407C72.0171 128.089 72.6126 127.888 73.3451 127.793L78.9783 127.057L79.1996 128.788L73.7719 129.493C73.129 129.577 72.6495 129.81 72.328 130.192C72.0066 130.573 71.8854 131.06 71.9591 131.648C72.0118 132.05 72.1436 132.395 72.3544 132.686C72.5652 132.977 72.8497 133.189 73.2081 133.321C73.5664 133.459 73.9774 133.496 74.4464 133.433H74.457Z" fill="black"/>
<path d="M68.0015 124.181L68.0594 122.433L76.5067 122.719C76.8439 122.73 77.0969 122.688 77.2708 122.592C77.4447 122.497 77.5606 122.37 77.6291 122.211C77.6923 122.052 77.7292 121.877 77.7345 121.687C77.7345 121.549 77.7345 121.422 77.7187 121.316C77.7029 121.21 77.6923 121.131 77.6818 121.067L79.1257 120.802C79.1626 120.903 79.1942 121.051 79.2311 121.237C79.268 121.427 79.2785 121.66 79.2732 121.941C79.268 122.402 79.1678 122.825 78.9887 123.217C78.8042 123.609 78.5302 123.921 78.1666 124.154C77.803 124.387 77.3498 124.493 76.8123 124.477L68.0067 124.176L68.0015 124.181ZM70.2621 120.67L71.6586 120.718L71.4952 125.616L70.0988 125.568L70.2621 120.67Z" fill="black"/>
<path d="M80.8332 112.976C80.6751 113.521 80.4327 113.987 80.1007 114.368C79.7687 114.75 79.3735 115.014 78.915 115.157C78.4513 115.3 77.9401 115.29 77.3816 115.126C76.8968 114.983 76.5279 114.776 76.2697 114.495C76.0115 114.215 75.8376 113.892 75.748 113.521C75.6584 113.15 75.6215 112.753 75.6426 112.335C75.6637 111.917 75.7058 111.493 75.7796 111.075C75.8692 110.54 75.9429 110.105 75.9956 109.772C76.0483 109.438 76.0536 109.184 76.0062 109.015C75.9588 108.845 75.8376 108.729 75.632 108.67L75.5952 108.66C75.1103 108.517 74.6888 108.543 74.341 108.739C73.9932 108.935 73.7402 109.306 73.5821 109.846C73.4188 110.413 73.4135 110.889 73.5663 111.286C73.7192 111.684 73.9299 111.985 74.1934 112.197L73.3819 113.669C72.9129 113.33 72.5704 112.933 72.3543 112.478C72.1383 112.022 72.0223 111.535 72.0118 111.022C72.0013 110.508 72.0698 109.989 72.2226 109.47C72.3227 109.126 72.4703 108.771 72.66 108.411C72.8549 108.045 73.1026 107.728 73.4135 107.452C73.7244 107.177 74.1091 106.986 74.5623 106.886C75.0208 106.785 75.5583 106.822 76.1854 107.007L81.8818 108.676L81.4076 110.312L80.2377 109.968L80.2166 110.037C80.4011 110.206 80.5644 110.434 80.712 110.709C80.8595 110.984 80.9491 111.318 80.9913 111.699C81.0334 112.081 80.9807 112.51 80.8437 112.981L80.8332 112.976ZM79.6001 112.218C79.7318 111.752 79.7582 111.329 79.6739 110.947C79.5895 110.561 79.4209 110.243 79.1732 109.978C78.9256 109.719 78.6357 109.539 78.2985 109.438L77.1919 109.115C77.234 109.195 77.2551 109.322 77.2551 109.507C77.2551 109.692 77.2446 109.899 77.2129 110.127C77.1813 110.354 77.155 110.577 77.1233 110.789C77.0917 111 77.0654 111.18 77.0443 111.323C76.9916 111.662 76.9758 111.98 76.9916 112.271C77.0127 112.568 77.0865 112.822 77.2235 113.034C77.3605 113.246 77.5765 113.394 77.8716 113.484C78.2827 113.606 78.641 113.542 78.9414 113.299C79.2417 113.055 79.4578 112.695 79.5948 112.218H79.6001Z" fill="black"/>
<path d="M79.5892 97.9256L79.1202 99.4613C78.9094 99.4295 78.6934 99.4348 78.4668 99.4772C78.2402 99.5195 78.0188 99.6254 77.8081 99.7843C77.5973 99.9485 77.4076 100.187 77.2442 100.51C77.0229 100.949 76.9333 101.368 76.9754 101.765C77.0176 102.162 77.1968 102.437 77.5024 102.596C77.7659 102.734 78.0346 102.745 78.2929 102.628C78.5563 102.512 78.8514 102.263 79.1782 101.876L80.1109 100.753C80.6537 100.102 81.1912 99.689 81.7287 99.5089C82.2662 99.3289 82.8142 99.3818 83.3781 99.6731C83.8523 99.9167 84.2107 100.272 84.4373 100.738C84.6639 101.204 84.764 101.738 84.7271 102.337C84.6902 102.935 84.5058 103.56 84.1791 104.206C83.7259 105.101 83.162 105.737 82.4928 106.102C81.8235 106.473 81.1068 106.542 80.3375 106.309L80.875 104.688C81.3124 104.794 81.7076 104.752 82.0501 104.561C82.3979 104.37 82.6877 104.042 82.9249 103.576C83.1831 103.068 83.2832 102.602 83.2252 102.189C83.1673 101.775 82.9881 101.489 82.6772 101.331C82.4295 101.204 82.1713 101.188 81.9078 101.288C81.6444 101.389 81.3703 101.606 81.091 101.945L80.1056 103.147C79.5576 103.809 79.0095 104.217 78.4562 104.386C77.9029 104.556 77.3496 104.492 76.7805 104.201C76.3115 103.963 75.9689 103.618 75.7476 103.174C75.5263 102.729 75.4367 102.226 75.4789 101.659C75.5158 101.092 75.6897 100.51 75.99 99.9061C76.4274 99.0429 76.9596 98.4551 77.5815 98.1533C78.2033 97.8461 78.8672 97.772 79.5681 97.9308L79.5892 97.9256Z" fill="black"/>
<path d="M90.7608 94.5738C90.3761 94.9922 89.9493 95.294 89.4856 95.4899C89.0218 95.6806 88.5476 95.7388 88.0733 95.6594C87.599 95.58 87.1458 95.3364 86.7137 94.9392C86.3449 94.595 86.1077 94.2402 86.0023 93.8748C85.8969 93.5094 85.8864 93.1387 85.9707 92.768C86.055 92.3973 86.2026 92.0266 86.4081 91.6612C86.6136 91.2958 86.8402 90.941 87.0931 90.5915C87.4093 90.1573 87.6675 89.8025 87.8678 89.5271C88.068 89.2517 88.1787 89.0293 88.2156 88.8545C88.2525 88.6798 88.1892 88.5209 88.0364 88.3779L88.0048 88.3515C87.6306 88.0019 87.246 87.8378 86.8507 87.859C86.4555 87.8801 86.0603 88.092 85.6809 88.5103C85.2804 88.9393 85.0643 89.3682 85.0222 89.7919C84.9853 90.2155 85.0327 90.5809 85.175 90.8881L83.7891 91.836C83.5256 91.3223 83.3939 90.8139 83.4044 90.3055C83.4149 89.8025 83.5256 89.3153 83.7469 88.8492C83.9682 88.3832 84.2633 87.9543 84.627 87.5571C84.8694 87.2923 85.1592 87.0434 85.4912 86.8051C85.8232 86.5668 86.192 86.3921 86.5925 86.2862C86.993 86.1803 87.4199 86.1803 87.8731 86.2968C88.3262 86.4133 88.79 86.6886 89.2695 87.1388L93.617 91.1952L92.4629 92.445L91.5671 91.6083L91.5196 91.6612C91.6092 91.8995 91.6567 92.1749 91.6619 92.4873C91.6672 92.7998 91.604 93.1387 91.4669 93.4935C91.3299 93.8536 91.0981 94.2137 90.7608 94.5738ZM89.9967 93.3399C90.3234 92.9851 90.5342 92.6197 90.6291 92.2331C90.7239 91.8519 90.7187 91.4865 90.6133 91.1422C90.5079 90.798 90.3287 90.5068 90.0705 90.2632L89.2273 89.4741C89.2273 89.5641 89.1905 89.6912 89.1114 89.8554C89.0324 90.0196 88.927 90.1996 88.8005 90.3903C88.674 90.5809 88.5476 90.7663 88.4264 90.941C88.2999 91.1158 88.1998 91.264 88.1155 91.3858C87.9152 91.6612 87.7624 91.9366 87.6465 92.212C87.5305 92.4873 87.4884 92.7468 87.5147 92.9957C87.5411 93.2446 87.6675 93.4776 87.8941 93.6894C88.2103 93.986 88.5528 94.0866 88.9323 94.0072C89.3064 93.9224 89.6647 93.7 90.002 93.3346L89.9967 93.3399Z" fill="black"/>
<path d="M100.426 78.1838L99.2241 79.2482C99.0607 79.1105 98.8763 78.9993 98.6602 78.9146C98.4442 78.8299 98.2018 78.8034 97.9383 78.8299C97.6748 78.8563 97.385 78.9623 97.0793 79.1529C96.6578 79.4071 96.3627 79.7195 96.194 80.0796C96.0254 80.4397 96.0307 80.7681 96.2098 81.0646C96.3627 81.3188 96.584 81.4724 96.8685 81.5094C97.1531 81.5518 97.5325 81.4936 98.0173 81.3347L99.398 80.874C100.199 80.6092 100.873 80.5403 101.427 80.6674C101.98 80.7945 102.417 81.1335 102.744 81.6736C103.023 82.1343 103.139 82.6215 103.092 83.1405C103.045 83.6595 102.85 84.1625 102.502 84.655C102.154 85.1422 101.674 85.5765 101.058 85.9525C100.204 86.4767 99.3927 86.715 98.6339 86.678C97.8698 86.6409 97.2216 86.3179 96.6894 85.7142L97.991 84.618C98.3072 84.941 98.6655 85.1105 99.0554 85.1316C99.4507 85.1528 99.8722 85.0257 100.315 84.7557C100.8 84.4591 101.132 84.1202 101.295 83.7336C101.464 83.3523 101.458 83.0134 101.279 82.7168C101.132 82.4785 100.926 82.3303 100.647 82.2773C100.373 82.2243 100.025 82.2667 99.6088 82.4044L98.1438 82.9075C97.3323 83.1776 96.6525 83.2411 96.0939 83.0928C95.5406 82.9446 95.0979 82.595 94.766 82.0496C94.4919 81.5995 94.376 81.1229 94.4234 80.6304C94.4709 80.1379 94.6553 79.6613 94.9873 79.1953C95.314 78.7345 95.7672 78.3268 96.3416 77.9773C97.1689 77.4742 97.9225 77.2571 98.6128 77.3259C99.3031 77.3947 99.9039 77.6807 100.42 78.1891L100.426 78.1838Z" fill="black"/>
<path d="M108.999 82.1128C108.172 82.4199 107.397 82.5046 106.67 82.3722C105.943 82.2398 105.3 81.9062 104.742 81.3767C104.183 80.8471 103.74 80.1481 103.419 79.2743C103.103 78.4111 102.982 77.5903 103.061 76.8171C103.14 76.0387 103.403 75.3608 103.846 74.773C104.288 74.1905 104.9 73.751 105.68 73.4597C106.154 73.285 106.639 73.1896 107.139 73.1844C107.64 73.1738 108.13 73.2744 108.604 73.4809C109.078 73.6874 109.521 74.0158 109.922 74.4765C110.322 74.9372 110.665 75.5462 110.944 76.3088L111.16 76.8913L104.499 79.3696L104.046 78.141L109.105 76.2558C108.947 75.8269 108.715 75.4721 108.42 75.2073C108.119 74.9372 107.782 74.7677 107.392 74.6883C107.002 74.6089 106.602 74.6512 106.18 74.8101C105.722 74.9796 105.363 75.239 105.105 75.5939C104.847 75.9434 104.694 76.3352 104.641 76.7642C104.589 77.1931 104.641 77.6168 104.8 78.0351L105.153 78.9936C105.358 79.555 105.637 79.9998 105.98 80.3175C106.322 80.6406 106.712 80.8365 107.145 80.9106C107.577 80.9848 108.03 80.9318 108.509 80.7571C108.82 80.6406 109.084 80.4923 109.305 80.3069C109.526 80.1216 109.695 79.9045 109.816 79.6609C109.937 79.4173 109.995 79.1366 109.995 78.8401L111.64 78.5435C111.682 79.0466 111.608 79.5285 111.418 79.9892C111.228 80.4499 110.928 80.863 110.517 81.2284C110.106 81.5938 109.6 81.8903 108.989 82.118L108.999 82.1128Z" fill="black"/>
<path d="M116.414 70.7644L116.677 72.1413L111.887 73.0733L111.624 71.6964L116.414 70.7644ZM112.504 69.3346L114.211 69.001L115.813 77.3363C115.876 77.6699 115.976 77.9082 116.103 78.0565C116.234 78.2048 116.382 78.2895 116.556 78.3213C116.725 78.3477 116.904 78.3477 117.088 78.3107C117.225 78.2842 117.341 78.2524 117.441 78.21C117.541 78.173 117.615 78.1412 117.673 78.12L118.253 79.4757C118.163 79.5339 118.026 79.5975 117.852 79.6769C117.678 79.7511 117.452 79.8199 117.178 79.8782C116.73 79.9735 116.298 79.9735 115.876 79.8782C115.455 79.7828 115.091 79.5869 114.785 79.2798C114.48 78.9726 114.274 78.5543 114.169 78.0247L112.498 69.3293L112.504 69.3346Z" fill="black"/>
<path d="M127.001 75.8325C126.532 75.8113 126.11 75.6736 125.736 75.4194C125.362 75.1705 125.067 74.8422 124.856 74.4397C124.645 74.0373 124.55 73.603 124.577 73.1317C124.598 72.6551 124.735 72.2315 124.988 71.8555C125.235 71.4795 125.562 71.1882 125.962 70.9764C126.363 70.7646 126.795 70.6693 127.264 70.6957C127.738 70.7169 128.16 70.8546 128.534 71.1088C128.908 71.3577 129.198 71.686 129.414 72.0832C129.625 72.4804 129.72 72.9199 129.693 73.3912C129.672 73.8625 129.535 74.2862 129.282 74.6621C129.029 75.0381 128.708 75.3347 128.313 75.5465C127.918 75.7583 127.48 75.8537 127.011 75.8272L127.001 75.8325Z" fill="black"/>
</g>
<path d="M106.29 130.729V129.809C106.29 129.11 106.438 128.468 106.733 127.883C107.034 127.292 107.469 126.82 108.037 126.468C108.611 126.11 109.31 125.931 110.134 125.931C110.969 125.931 111.67 126.107 112.239 126.459C112.813 126.812 113.244 127.283 113.534 127.874C113.83 128.459 113.977 129.104 113.977 129.809V130.729C113.977 131.428 113.83 132.073 113.534 132.664C113.239 133.249 112.804 133.718 112.23 134.07C111.656 134.428 110.957 134.607 110.134 134.607C109.298 134.607 108.597 134.428 108.028 134.07C107.46 133.718 107.028 133.249 106.733 132.664C106.438 132.073 106.29 131.428 106.29 130.729ZM108.77 129.809V130.729C108.77 131.133 108.867 131.513 109.06 131.871C109.259 132.229 109.617 132.408 110.134 132.408C110.651 132.408 111.003 132.232 111.19 131.88C111.384 131.528 111.48 131.144 111.48 130.729V129.809C111.48 129.394 111.389 129.008 111.207 128.65C111.026 128.292 110.668 128.113 110.134 128.113C109.622 128.113 109.267 128.292 109.068 128.65C108.869 129.008 108.77 129.394 108.77 129.809ZM97.3324 120.741V119.82C97.3324 119.116 97.483 118.471 97.7841 117.885C98.0853 117.295 98.5199 116.823 99.0881 116.471C99.662 116.118 100.355 115.942 101.168 115.942C102.009 115.942 102.713 116.118 103.281 116.471C103.849 116.823 104.281 117.295 104.577 117.885C104.872 118.471 105.02 119.116 105.02 119.82V120.741C105.02 121.445 104.869 122.09 104.568 122.675C104.273 123.26 103.838 123.729 103.264 124.081C102.696 124.428 101.997 124.601 101.168 124.601C100.338 124.601 99.6364 124.425 99.0625 124.073C98.4943 123.715 98.0625 123.246 97.7671 122.667C97.4773 122.081 97.3324 121.439 97.3324 120.741ZM99.8296 119.82V120.741C99.8296 121.155 99.9262 121.539 100.119 121.891C100.318 122.243 100.668 122.42 101.168 122.42C101.69 122.42 102.045 122.243 102.233 121.891C102.426 121.539 102.523 121.155 102.523 120.741V119.82C102.523 119.405 102.432 119.019 102.25 118.661C102.068 118.303 101.707 118.124 101.168 118.124C100.662 118.124 100.313 118.306 100.119 118.67C99.9262 119.033 99.8296 119.417 99.8296 119.82ZM98.4574 134.002L110.457 116.547H112.69L100.69 134.002H98.4574ZM117.097 130.934V128.028L124.384 116.547H126.889V120.57H125.406L120.813 127.84V127.976H131.168V130.934H117.097ZM125.474 134.002V130.047L125.543 128.76V116.547H129.003V134.002H125.474ZM140.001 134.241C138.797 134.241 137.723 134.019 136.78 133.576C135.842 133.133 135.098 132.522 134.547 131.743C133.996 130.965 133.709 130.073 133.686 129.067H137.266C137.305 129.743 137.59 130.292 138.118 130.712C138.646 131.133 139.274 131.343 140.001 131.343C140.581 131.343 141.092 131.215 141.536 130.959C141.984 130.698 142.334 130.337 142.584 129.877C142.84 129.411 142.967 128.877 142.967 128.275C142.967 127.661 142.837 127.121 142.575 126.655C142.32 126.189 141.965 125.826 141.51 125.564C141.055 125.303 140.536 125.17 139.95 125.164C139.439 125.164 138.942 125.269 138.459 125.479C137.982 125.689 137.609 125.976 137.342 126.34L134.061 125.752L134.888 116.547H145.558V119.564H137.93L137.479 123.937H137.581C137.888 123.505 138.351 123.147 138.97 122.863C139.59 122.579 140.283 122.437 141.05 122.437C142.101 122.437 143.038 122.684 143.862 123.178C144.686 123.672 145.337 124.351 145.814 125.215C146.291 126.073 146.527 127.062 146.521 128.181C146.527 129.357 146.254 130.403 145.703 131.317C145.158 132.226 144.393 132.942 143.411 133.465C142.433 133.982 141.297 134.241 140.001 134.241Z" fill="#171717"/>
</g>
<defs>
<filter id="filter0_b_276_3832" x="-5.52441" y="-5.51465" width="261.59" height="261.602" filterUnits="userSpaceOnUse" color-interpolation-filters="sRGB">
<feFlood flood-opacity="0" result="BackgroundImageFix"/>
<feGaussianBlur in="BackgroundImageFix" stdDeviation="2"/>
<feComposite in2="SourceAlpha" operator="in" result="effect1_backgroundBlur_276_3832"/>
<feBlend mode="normal" in="SourceGraphic" in2="effect1_backgroundBlur_276_3832" result="shape"/>
</filter>
<clipPath id="clip0_276_3832">
<rect width="250" height="250.005" fill="white"/>
</clipPath>
<clipPath id="clip1_276_3832">
<rect width="113.002" height="112.002" fill="white" transform="translate(68.0015 69.001)"/>
</clipPath>
</defs>
</svg>
