<svg width="32" height="32" viewBox="0 0 32 32" fill="none" xmlns="http://www.w3.org/2000/svg">
<g id="energy (2) 1" clip-path="url(#clip0_276_3904)">
<path id="Vector" d="M28.3948 11.5811C28.2396 11.2542 27.9099 11.0457 27.5479 11.0457H18.1451L23.8364 1.41444C24.0076 1.12463 24.0103 0.765125 23.8434 0.472813C23.6766 0.1805 23.3658 -0.000124935 23.0291 6.48369e-08L14.9958 0.000875065C14.6624 0.00100006 14.3541 0.178 14.1861 0.465938L3.64239 18.5399C3.4732 18.8299 3.47201 19.1881 3.6392 19.4792C3.80639 19.7702 4.11645 19.9498 4.45214 19.9498H13.7951L11.0739 30.8351C10.9674 31.2609 11.1708 31.7038 11.5633 31.9006C11.6972 31.9676 11.8408 32 11.9829 32C12.2577 32 12.5269 31.8793 12.7098 31.655L28.2744 12.5758C28.5032 12.2953 28.5501 11.9081 28.3948 11.5811V11.5811Z" fill="#171717"/>
</g>
<defs>
<clipPath id="clip0_276_3904">
<rect width="32" height="32" fill="white"/>
</clipPath>
</defs>
</svg>
