<svg width="105" height="35" viewBox="0 0 105 35" fill="none" xmlns="http://www.w3.org/2000/svg">
<g clip-path="url(#clip0_276_3766)">
<path d="M55.8963 11.2672C58.1337 12.2909 58.896 20.1789 62.8934 26.8611C66.8909 33.5433 70.0889 35.2955 83.9777 34.9627C98.3252 34.611 100.761 16.8378 101.461 15.117C101.926 13.974 103.358 12.3851 104.269 11.443C105.26 10.4256 105.012 9.69084 104.839 5.48305C104.789 4.2898 103.946 3.28495 102.8 3.04002C86.7976 -0.414133 76.1377 -1.4127 61.5919 2.66948C57.6131 3.78737 55.9149 3.8439 52.5 3.81878C49.0852 3.8439 47.387 3.78737 43.4081 2.66948C28.7136 -1.45666 17.9917 -0.370171 2.2002 3.03374C1.04744 3.28495 0.210763 4.2898 0.161182 5.48305C-0.0123515 9.62175 -0.260256 10.4193 0.731362 11.443C1.64241 12.3851 3.07406 13.974 3.53888 15.117C4.23921 16.8378 6.67487 34.611 21.0224 34.9627C34.9112 35.3018 38.1092 33.5433 42.1066 26.8611C46.1041 20.1789 46.8602 12.2972 49.1038 11.2672C50.5416 10.6078 54.4585 10.6078 55.8963 11.2672ZM96.8626 17.2083C95.4619 27.0621 91.0678 30.6419 88.5392 31.653C86.0106 32.6641 75.1523 34.1525 69.2894 29.6307C63.4264 25.1089 61.561 15.7262 61.499 10.5261C61.4308 5.32604 69.2274 4.04487 69.2274 4.04487C78.152 2.22358 87.1447 2.83277 91.2104 4.18303C95.276 5.53329 98.2694 7.35457 96.875 17.2083H96.8626ZM13.8021 4.18303C17.8678 2.83277 26.8605 2.22358 35.7851 4.05115C35.7851 4.05115 43.5755 5.33232 43.5135 10.5324C43.4453 15.7325 41.5798 25.1152 35.7169 29.637C29.854 34.1588 18.9957 32.6767 16.4671 31.6593C13.9385 30.6481 9.53817 27.0684 8.14371 17.2146C6.74925 7.36085 9.7427 5.53957 13.8083 4.18931L13.8021 4.18303Z" fill="#21C16C"/>
</g>
<defs>
<clipPath id="clip0_276_3766">
<rect width="105" height="35" fill="white"/>
</clipPath>
</defs>
</svg>
