<svg width="138" height="32" viewBox="0 0 138 32" fill="none" xmlns="http://www.w3.org/2000/svg">
<g clip-path="url(#clip0_213_1908)">
<path d="M133.443 0H102.556C100.146 0 98.2012 1.94373 98.2012 4.35192V32L104.21 26.053H133.472C135.882 26.053 137.827 24.1093 137.827 21.7011V4.35192C137.798 1.94373 135.853 0 133.443 0ZM107.461 19.4959C107.461 20.1346 106.939 20.6564 106.3 20.6564C105.661 20.6564 105.139 20.1346 105.139 19.4959V7.16604C105.139 6.52726 105.661 6.00553 106.3 6.00553C106.939 6.00553 107.461 6.52726 107.461 7.16604V19.4959ZM112.861 19.4959C112.861 20.1346 112.339 20.6564 111.7 20.6564C111.061 20.6564 110.539 20.1346 110.539 19.4959V11.3436C110.539 10.7049 111.061 10.1831 111.7 10.1831C112.339 10.1831 112.861 10.7049 112.861 11.3436V19.4959ZM113.006 7.63049C113.006 8.32655 112.454 8.87817 111.757 8.87817H111.641C110.945 8.87817 110.393 8.32655 110.393 7.63049V7.54333C110.393 6.84727 110.945 6.29565 111.641 6.29565H111.757C112.454 6.29565 113.006 6.84727 113.006 7.54333V7.63049ZM121.192 20.3662C120.67 20.6277 120.089 20.7435 119.479 20.7435C117.475 20.7435 116.401 19.786 116.401 17.9581V12.3585H115.356C115.007 12.3585 114.716 12.097 114.716 11.7496V11.7209C114.716 11.518 114.832 11.315 115.007 11.1693L117.591 8.64532C117.735 8.50088 117.91 8.41371 118.113 8.38383C118.462 8.38383 118.781 8.67396 118.781 9.02261V10.2703H120.639C121.219 10.2703 121.684 10.7347 121.684 11.315C121.684 11.8952 121.219 12.3597 120.639 12.3597H118.781V17.8136C118.781 18.5968 119.187 18.6554 119.739 18.6554C119.971 18.6554 120.204 18.6267 120.407 18.5682C120.551 18.5097 120.726 18.5097 120.872 18.481C121.394 18.481 121.83 18.9156 121.858 19.4672C121.8 19.8445 121.539 20.2218 121.191 20.3662H121.192ZM128.304 18.5669C129.146 18.5956 129.987 18.3926 130.742 18.0153C130.887 17.9282 131.061 17.8995 131.207 17.8995C131.787 17.8995 132.252 18.3341 132.252 18.9144V18.943C132.224 19.3489 131.991 19.7262 131.613 19.9005C130.801 20.365 129.93 20.7709 128.129 20.7709C124.879 20.7709 122.904 18.7687 122.904 15.4328C122.904 11.5167 125.517 10.0947 127.723 10.0947C131.032 10.0947 132.543 12.7345 132.543 15.1713C132.571 15.7802 132.078 16.3032 131.469 16.3318H125.285C125.604 17.7825 126.649 18.5657 128.304 18.5657V18.5669Z" fill="#21C16C"/>
<path d="M127.781 12.1559C126.504 12.1273 125.43 13.0848 125.314 14.3611H130.278C130.134 13.0848 129.059 12.1273 127.781 12.1559Z" fill="#21C16C"/>
<path d="M11.2267 16.9196C10.2486 16.2908 9.12102 15.9708 7.87755 15.9708C6.9194 15.9708 6.13444 16.1339 5.54634 16.4539C4.96074 16.7739 4.49599 17.1512 4.16581 17.5758C3.85556 17.9743 3.61135 18.3329 3.4419 18.6405L3.41324 18.643V12.5789C3.41324 11.7558 2.74291 11.0859 1.91933 11.0859H1.74489C0.921307 11.0859 0.250977 11.7558 0.250977 12.5789V30.1161C0.250977 30.9392 0.921307 31.6091 1.74489 31.6091H1.84955C2.67314 31.6091 3.34347 30.9392 3.34347 30.1161V29.298C3.34347 29.2644 3.37088 29.237 3.40452 29.237C3.42695 29.237 3.44688 29.2482 3.4581 29.2681C3.63503 29.5769 3.88048 29.9281 4.18699 30.3128C4.52465 30.7387 4.99811 31.1147 5.59244 31.4298C6.18926 31.7473 6.96799 31.9079 7.90745 31.9079C9.15217 31.9079 10.276 31.5842 11.2479 30.9441C12.2185 30.3054 12.9922 29.3802 13.5467 28.1948C14.0999 27.0131 14.3803 25.5749 14.3803 23.9201C14.3803 22.2652 14.0987 20.8295 13.5417 19.6503C12.9835 18.4674 12.2048 17.5497 11.2267 16.9209V16.9196ZM11.1881 23.8902C11.1881 24.8925 11.0348 25.8065 10.7321 26.6059C10.4318 27.4003 9.98572 28.0354 9.40635 28.4961C8.83071 28.9531 8.10182 29.1847 7.24086 29.1847C6.37989 29.1847 5.70333 28.9631 5.13392 28.5247C4.56203 28.0852 4.11722 27.4626 3.81445 26.6757C3.50918 25.8837 3.35344 24.9461 3.35344 23.8902C3.35344 22.8343 3.50545 21.924 3.80448 21.1445C4.10102 20.3713 4.54334 19.7611 5.11897 19.3303C5.69212 18.902 6.40606 18.6841 7.2421 18.6841C8.07815 18.6841 8.84442 18.9107 9.42379 19.3589C10.0057 19.8085 10.4505 20.4323 10.7433 21.213C11.0386 22 11.1893 22.9003 11.1893 23.8889L11.1881 23.8902Z" fill="black"/>
<path d="M27.8345 16.9681C26.7579 16.3069 25.4808 15.9707 24.0392 15.9707C22.5977 15.9707 21.3205 16.3057 20.244 16.9681C19.1675 17.6293 18.3203 18.5706 17.7247 19.7673C17.1316 20.9602 16.8301 22.3697 16.8301 23.9598C16.8301 25.5499 17.1304 26.947 17.7247 28.1324C18.319 29.3216 19.1675 30.2592 20.244 30.9204C21.3205 31.5816 22.5977 31.9178 24.0392 31.9178C25.4808 31.9178 26.7579 31.5828 27.8345 30.9204C28.911 30.2592 29.7582 29.3203 30.3538 28.1324C30.9469 26.9458 31.2484 25.5424 31.2484 23.9598C31.2484 22.3772 30.9481 20.9602 30.3538 19.7673C29.7595 18.5719 28.911 17.6305 27.8345 16.9681ZM28.0562 23.9486C28.0562 24.9124 27.9092 25.8064 27.6202 26.6058C27.3323 27.399 26.8863 28.0428 26.2944 28.5197C25.7051 28.9928 24.9501 29.2332 24.0505 29.2332C23.1509 29.2332 22.3834 28.9928 21.7903 28.5197C21.1947 28.0428 20.7462 27.399 20.4596 26.6058C20.1705 25.8064 20.0235 24.9124 20.0235 23.9486C20.0235 22.9848 20.1705 22.0983 20.4596 21.2951C20.7462 20.4982 21.1947 19.8495 21.7903 19.3663C22.3821 18.8869 23.1422 18.6429 24.0492 18.6429C24.9563 18.6429 25.7039 18.8857 26.2932 19.3663C26.8863 19.8495 27.3323 20.4982 27.6202 21.2951C27.9092 22.0983 28.0562 22.9911 28.0562 23.9486Z" fill="black"/>
<path d="M44.6811 16.9681C43.6046 16.3069 42.3275 15.9707 40.8859 15.9707C39.4443 15.9707 38.1672 16.3057 37.0907 16.9681C36.0142 17.6293 35.1669 18.5706 34.5714 19.7673C33.9783 20.9602 33.6768 22.3697 33.6768 23.9598C33.6768 25.5499 33.977 26.947 34.5714 28.1324C35.1657 29.3216 36.0129 30.2592 37.0907 30.9204C38.1672 31.5816 39.4443 31.9178 40.8859 31.9178C42.3275 31.9178 43.6046 31.5828 44.6811 30.9204C45.7577 30.2592 46.6049 29.3203 47.2005 28.1324C47.7936 26.947 48.0951 25.5424 48.0951 23.9598C48.0951 22.3772 47.7948 20.9602 47.2005 19.7673C46.6062 18.5719 45.7577 17.6305 44.6811 16.9681ZM43.1411 28.5209C42.5518 28.9941 41.7967 29.2344 40.8971 29.2344C39.9976 29.2344 39.23 28.9941 38.637 28.5209C38.0414 28.044 37.5928 27.4003 37.3063 26.6071C37.0172 25.8077 36.8702 24.9136 36.8702 23.9498C36.8702 22.9861 37.0172 22.0995 37.3063 21.2964C37.5941 20.4994 38.0414 19.8507 38.637 19.3676C39.2288 18.8882 39.9888 18.6441 40.8959 18.6441C41.803 18.6441 42.5505 18.8869 43.1399 19.3676C43.733 19.8507 44.179 20.4994 44.4668 21.2964C44.7559 22.0995 44.9029 22.9923 44.9029 23.9498C44.9029 24.9074 44.7559 25.8077 44.4668 26.6071C44.179 27.4003 43.733 28.044 43.1411 28.5209Z" fill="black"/>
<path d="M58.1186 22.8168L62.2141 18.4774C62.5953 18.0739 62.695 17.5061 62.4757 16.9956C62.2552 16.4863 61.7743 16.1688 61.2186 16.1688C60.8086 16.1688 60.4124 16.3394 60.1308 16.6382L54.4953 22.6213H54.3732V12.5789C54.3732 11.7558 53.7029 11.0859 52.8793 11.0859H52.7049C51.8813 11.0859 51.2109 11.7558 51.2109 12.5789V30.1161C51.2109 30.9392 51.8813 31.6091 52.7049 31.6091H52.8793C53.7029 31.6091 54.3732 30.9392 54.3732 30.1161V26.1427L55.7425 24.7743L60.4473 31.0151C60.7276 31.3874 61.1737 31.6091 61.6409 31.6091H61.7767C62.3474 31.6091 62.8607 31.2915 63.1149 30.781C63.3691 30.2705 63.313 29.6703 62.9679 29.2158L58.1198 22.8168H58.1186Z" fill="black"/>
<path d="M72.7487 15.9658C70.4512 15.9658 68.5523 16.8225 67.2665 18.445C66.1638 19.8533 65.5508 21.7808 65.5508 23.8927C65.5508 28.851 68.4601 31.8195 73.2995 31.8195C75.9646 31.8195 77.2803 31.2069 78.5064 30.5034C79.0272 30.258 79.3636 29.7376 79.4246 29.1561C79.4246 28.3604 78.7817 27.7179 78.0154 27.7179H77.9843C77.77 27.7179 77.5245 27.749 77.3414 27.871C76.1776 28.4837 74.8918 28.7588 73.6047 28.7277C70.9097 28.7277 69.3173 27.4726 68.9186 25.0856H78.2908C79.148 25.1167 79.8831 24.443 79.9143 23.5864V23.4643C79.9143 18.3217 76.2088 15.9658 72.7475 15.9658H72.7487ZM68.8289 22.3623C69.1354 19.8832 70.9732 18.7812 72.7487 18.7812C74.0969 18.7812 76.3633 19.547 76.6686 22.3623H68.8277H68.8289Z" fill="black"/>
<path d="M91.1246 16.1465C91.1246 16.1776 91.0934 16.1776 91.0934 16.1776H90.9402C89.4089 16.1776 87.9997 16.9123 86.7139 18.3206V17.9532C86.7139 17.0654 85.9788 16.3308 85.0904 16.3308C84.202 16.3308 83.4669 17.0654 83.498 17.9532V30.288C83.5292 31.1759 84.2942 31.8794 85.1826 31.8184C86.0099 31.7872 86.6827 31.1148 86.7139 30.288V21.6265C87.7555 20.1273 89.2257 19.3005 90.8791 19.3005H91.0324C91.8896 19.3616 92.5948 18.719 92.6559 17.8623V17.7702C92.687 16.9135 91.9818 16.1789 91.1246 16.1477V16.1465Z" fill="black"/>
</g>
<defs>
<clipPath id="clip0_213_1908">
<rect width="137.827" height="32" fill="white"/>
</clipPath>
</defs>
</svg>
