<svg width="40" height="30" viewBox="0 0 40 30" fill="none" xmlns="http://www.w3.org/2000/svg">
<g clip-path="url(#clip0_341_7204)">
<path d="M28.0422 16.9408C28.165 13.3163 28.7727 10.5551 29.8593 8.65714C30.9458 6.75918 32.6401 5.33265 34.936 4.37755L32.1797 0C28.3798 1.70816 25.599 4.23061 23.8433 7.56122C22.5051 10.0592 21.8359 14.1061 21.8359 19.6837V29.9939H39.1841V16.9286H28.0422V16.9408Z" fill="black"/>
<path d="M8.02335 8.65714C9.10991 6.75918 10.8042 5.33265 13.1001 4.37755L10.3377 0C6.53777 1.70816 3.76306 4.23061 2.00737 7.56122C0.669124 10.0653 0 14.1061 0 19.6898V30H17.3481V16.9347H6.20628C6.32906 13.3102 6.93679 10.549 8.02335 8.65102V8.65714Z" fill="black"/>
</g>
<defs>
<clipPath id="clip0_341_7204">
<rect width="39.1837" height="30" fill="white"/>
</clipPath>
</defs>
</svg>
